<svg version="1.1" id="Layer_1" xmlns="http://www.w3.org/2000/svg" xmlns:xlink="http://www.w3.org/1999/xlink" x="0px" y="0px"
	 width="100%" viewBox="0 0 142 139" enable-background="new 0 0 142 139" xml:space="preserve">
<path fill="#FDFDFD" opacity="1.000000" stroke="none" 
	d="
M82.000000,140.000000 
	C54.690556,140.000000 27.881111,140.000000 1.035833,140.000000 
	C1.035833,93.731827 1.035833,47.463619 1.035833,1.097705 
	C48.225880,1.097705 95.452026,1.097705 142.839081,1.097705 
	C142.839081,47.332886 142.839081,93.666389 142.839081,140.000000 
	C122.797340,140.000000 102.648674,140.000000 82.000000,140.000000 
M54.135860,135.473755 
	C100.690811,148.543137 144.158127,108.972931 137.243744,61.785629 
	C132.501556,29.422449 104.856300,5.101037 72.307327,5.002031 
	C38.529831,4.899288 11.322277,29.305176 6.384572,64.136467 
	C2.019828,94.926018 22.722795,126.230804 54.135860,135.473755 
z"/>
<path fill="#010101" opacity="1.000000" stroke="none" 
	d="
M53.754784,135.331055 
	C22.722795,126.230804 2.019828,94.926018 6.384572,64.136467 
	C11.322277,29.305176 38.529831,4.899288 72.307327,5.002031 
	C104.856300,5.101037 132.501556,29.422449 137.243744,61.785629 
	C144.158127,108.972931 100.690811,148.543137 53.754784,135.331055 
M70.736908,57.933338 
	C68.356979,54.737770 66.061668,51.473396 63.550068,48.384907 
	C62.700073,47.339676 61.335232,46.105942 60.150314,46.045609 
	C55.082966,45.787594 49.994934,45.935707 43.971756,45.935707 
	C51.413563,55.792721 58.243206,64.838905 65.079224,73.893524 
	C58.464279,81.573601 52.074226,88.992569 45.627834,96.476952 
	C51.840279,98.594521 55.307266,95.834694 58.483341,91.691139 
	C61.749943,87.429474 65.472404,83.517242 69.162361,79.259430 
	C73.412956,84.809235 77.115913,89.710587 80.909302,94.540932 
	C81.671303,95.511230 82.746315,96.879501 83.729385,96.924683 
	C88.914543,97.163048 94.116478,97.036415 100.046074,97.036415 
	C92.290558,86.679779 85.147537,77.141060 78.014717,67.615974 
	C84.159081,60.479534 90.164078,53.504951 96.197708,46.497120 
	C90.205597,44.536381 86.565277,46.939110 83.393761,51.182735 
	C80.562355,54.971268 77.239685,58.392654 73.999603,62.130875 
	C72.797623,60.625305 71.976189,59.596401 70.736908,57.933338 
z"/>
<path fill="#F7F7F7" opacity="1.000000" stroke="none" 
	d="
M70.945831,58.250416 
	C71.976189,59.596401 72.797623,60.625305 73.999603,62.130875 
	C77.239685,58.392654 80.562355,54.971268 83.393761,51.182735 
	C86.565277,46.939110 90.205597,44.536381 96.197708,46.497120 
	C90.164078,53.504951 84.159081,60.479534 78.014717,67.615974 
	C85.147537,77.141060 92.290558,86.679779 100.046074,97.036415 
	C94.116478,97.036415 88.914543,97.163048 83.729385,96.924683 
	C82.746315,96.879501 81.671303,95.511230 80.909302,94.540932 
	C77.115913,89.710587 73.412956,84.809235 69.162361,79.259430 
	C65.472404,83.517242 61.749943,87.429474 58.483341,91.691139 
	C55.307266,95.834694 51.840279,98.594521 45.627834,96.476952 
	C52.074226,88.992569 58.464279,81.573601 65.079224,73.893524 
	C58.243206,64.838905 51.413563,55.792721 43.971756,45.935707 
	C49.994934,45.935707 55.082966,45.787594 60.150314,46.045609 
	C61.335232,46.105942 62.700073,47.339676 63.550068,48.384907 
	C66.061668,51.473396 68.356979,54.737770 70.945831,58.250416 
M79.299751,84.227722 
	C82.512459,86.798584 82.930580,93.185150 89.751053,91.665039 
	C79.740891,78.338425 70.042427,65.301048 60.123852,52.433346 
	C59.217999,51.258144 56.901936,51.169941 54.863476,50.442310 
	C55.016998,51.662800 54.945515,52.064720 55.112896,52.285809 
	C63.031040,62.744762 70.969894,73.188042 79.299751,84.227722 
z"/>
<path fill="#0D0D0D" opacity="1.000000" stroke="none" 
	d="
M79.103073,83.930412 
	C70.969894,73.188042 63.031040,62.744762 55.112896,52.285809 
	C54.945515,52.064720 55.016998,51.662800 54.863476,50.442310 
	C56.901936,51.169941 59.217999,51.258144 60.123852,52.433346 
	C70.042427,65.301048 79.740891,78.338425 89.751053,91.665039 
	C82.930580,93.185150 82.512459,86.798584 79.103073,83.930412 
z"/>
</svg>